<svg height="512pt" viewBox="0 0 512 512" width="512pt" xmlns="http://www.w3.org/2000/svg"><path d="m241.988281 160.785156 33.015625-37.507812c-5.84375-2.117188-12.140625-3.277344-18.703125-3.277344-30.328125 0-55 24.671875-55 55 0 14.949219 5.894531 28.933594 16.601563 39.378906 7.90625 7.710938 8.0625 20.375.351562 28.277344-3.921875 4.019531-9.117187 6.035156-14.320312 6.035156-5.035156 0-10.074219-1.886718-13.960938-5.683594-18.488281-18.03125-28.671875-42.1875-28.671875-68.007812 0-52.382812 42.617188-95 95-95 23.648438 0 45.300781 8.6875 61.945313 23.03125.242187.195312.488281.367188.722656.574219.242188.210937.453125.445312.683594.664062 19.410156 17.410157 31.648437 42.667969 31.648437 70.730469 0 11.046875-8.953125 20-20 20s-20-8.953125-20-20c0-9.140625-2.253906-17.761719-6.21875-25.355469l-33.070312 37.570313c-3.953125 4.492187-9.472657 6.785156-15.019531 6.785156-4.695313 0-9.40625-1.644531-13.207032-4.988281-8.292968-7.296875-9.097656-19.9375-1.796875-28.226563zm270.011719 191.214844v140c0 11.046875-8.953125 20-20 20s-20-8.953125-20-20v-10h-432v10c0 11.046875-8.953125 20-20 20s-20-8.953125-20-20v-140c0-11.046875 8.953125-20 20-20s20 8.953125 20 20v10h156v-22.597656c-67.03125-24.542969-115-88.976563-115-164.402344 0-96.496094 78.503906-175 175-175s175 78.503906 175 175c0 23.476562-4.574219 46.269531-13.601562 67.746094-4.28125 10.183594-16.003907 14.96875-26.1875 10.691406-10.183594-4.277344-14.96875-16.003906-10.691407-26.1875 6.957031-16.542969 10.480469-34.125 10.480469-52.25 0-74.4375-60.5625-135-135-135s-135 60.5625-135 135 60.5625 135 135 135c23.898438 0 47.371094-6.320312 67.882812-18.277344 9.542969-5.5625 21.785157-2.339844 27.351563 7.203125 5.5625 9.542969 2.335937 21.789063-7.207031 27.351563-8.949219 5.21875-18.339844 9.589844-28.027344 13.117187v22.605469h156v-10c0-11.046875 8.953125-20 20-20s20 8.953125 20 20zm-40 90v-40h-176c-11.046875 0-20-8.953125-20-20v-33.167969c-6.621094.761719-13.296875 1.167969-20 1.167969-6.761719 0-13.433594-.398438-20-1.148438v33.148438c0 11.046875-8.953125 20-20 20h-176v40zm0 0"/></svg>